<svg width="101" height="12" viewBox="0 0 101 12" fill="none" xmlns="http://www.w3.org/2000/svg">
<g clip-path="url(#clip0_223_1961)">
<path d="M32.4307 9.62482L25.5225 0.201828L25.4874 0.153198H24.1123V11.8578H25.4802V2.38777L32.4068 11.8578H33.7819V0.153198H32.4307V9.62482Z" fill="#1B2F4C"/>
<path d="M38.2111 6.52527H44.0679V5.27207H38.2111V1.40641H44.7575V0.153198H36.844V11.8578H44.9711V10.6046H38.2111V6.52527Z" fill="#1B2F4C"/>
<path d="M55.6633 0.153198H54.045L50.8085 4.69489L47.5712 0.153198H45.9538L49.9747 5.81735L45.6572 11.8578H47.2763L50.8085 6.92149L54.3057 11.8084L54.3408 11.8578H55.9917L51.6583 5.78387L55.6633 0.153198Z" fill="#1B2F4C"/>
<path d="M56.679 1.40636H60.4687V11.8577H61.8358V1.40636H65.6256V0.137207H56.679V1.40636Z" fill="#1B2F4C"/>
<path d="M75.1558 0.923297C74.2382 0.412288 73.2123 0.153992 72.1042 0.153992H67.3762V11.8586H72.0715C73.1908 11.8586 74.2263 11.5995 75.147 11.0893C76.0693 10.5783 76.8043 9.86796 77.332 8.97907C77.8606 8.08939 78.1276 7.09209 78.1276 6.01506C78.1276 4.93724 77.8598 3.93754 77.332 3.04227C76.8043 2.14701 76.0717 1.43431 75.1558 0.923297ZM72.1369 10.6046H68.7434V1.4064H72.0875C72.9381 1.4064 73.7273 1.61129 74.432 2.01388C75.1382 2.41806 75.7066 2.9777 76.1203 3.67765C76.5341 4.3776 76.7437 5.16444 76.7437 6.01346C76.7437 6.86329 76.5365 7.64614 76.1283 8.34051C75.7194 9.03568 75.1574 9.59293 74.4567 9.99631C73.7567 10.4005 72.9763 10.6046 72.1369 10.6046Z" fill="#1B2F4C"/>
<path d="M88.544 0.849869C87.6169 0.322118 86.5846 0.0550537 85.475 0.0550537C84.3661 0.0550537 83.3338 0.322118 82.4059 0.849869C81.4788 1.37762 80.7334 2.10069 80.1897 2.99994C79.6453 3.89998 79.3687 4.90287 79.3687 5.98149C79.3687 7.06011 79.6445 8.06858 80.1889 8.97899C80.7326 9.8894 81.4788 10.6212 82.4051 11.1538C83.3322 11.6871 84.3653 11.9574 85.4742 11.9574C86.583 11.9574 87.6161 11.6871 88.5432 11.1538C89.4696 10.6212 90.2157 9.8894 90.7594 8.97899C91.3038 8.06778 91.5797 7.05931 91.5797 5.98149C91.5797 4.90446 91.3038 3.90078 90.7586 2.99994C90.2157 2.09989 89.4704 1.37682 88.544 0.849869ZM85.4917 10.7033C84.6411 10.7033 83.8439 10.4905 83.1225 10.0712C82.3995 9.65103 81.8176 9.07226 81.3935 8.3492C80.9686 7.62772 80.7533 6.83052 80.7533 5.98069C80.7533 5.13167 80.9686 4.34084 81.3935 3.62893C81.8176 2.91782 82.3995 2.34623 83.1225 1.93168C83.8447 1.51793 84.6419 1.30747 85.4925 1.30747C86.3319 1.30747 87.1203 1.51713 87.837 1.93168C88.5544 2.34623 89.1339 2.91782 89.558 3.62893C89.9829 4.34004 90.1982 5.13167 90.1982 5.98069C90.1982 6.83052 89.9829 7.62693 89.558 8.3492C89.1332 9.07226 88.5536 9.65183 87.837 10.0712C87.1187 10.4905 86.3303 10.7033 85.4917 10.7033Z" fill="#C7A038"/>
<path d="M91.772 0.137207V1.40636H95.5625V11.8577H96.9296V1.40636H100.719V0.137207H91.772Z" fill="#1B2F4C"/>
<path d="M1.81104 11.7285C2.68989 11.6679 3.35321 10.9062 3.2926 10.0273C3.23199 9.14844 2.4704 8.48509 1.59155 8.54571C0.712695 8.60632 0.0493787 9.36794 0.109989 10.2468C0.1706 11.1257 0.932185 11.7891 1.81104 11.7285Z" fill="#C7A038"/>
<path d="M12.5491 3.64573C13.4222 3.52758 14.0341 2.72404 13.916 1.85096C13.7978 0.977874 12.9943 0.365876 12.1213 0.484019C11.2483 0.602163 10.6363 1.40571 10.7544 2.27879C10.8726 3.15187 11.6761 3.76387 12.5491 3.64573Z" fill="#1B2F4C"/>
<path d="M18.6757 11.7516C19.5459 11.6145 20.1401 10.7978 20.003 9.92751C19.8658 9.05725 19.0492 8.46296 18.1789 8.60014C17.3087 8.73731 16.7145 9.554 16.8516 10.4243C16.9888 11.2945 17.8054 11.8888 18.6757 11.7516Z" fill="#1B2F4C"/>
<path d="M10.3709 4.95706C10.4905 4.08412 9.87986 3.27974 9.00696 3.16016C8.57091 3.10037 8.1516 3.22314 7.82635 3.46947C7.68605 3.5763 7.56329 3.70545 7.46444 3.85373C7.21094 4.17979 7.10332 4.58796 7.04752 4.95308C6.97817 5.40589 6.56603 5.72398 6.11165 5.65861C5.79836 5.61317 5.44282 5.60121 5.1104 5.71361C5.0283 5.74152 4.95097 5.77181 4.87763 5.8037C4.72059 5.8587 4.57391 5.93763 4.44318 6.03728C4.11793 6.28441 3.88675 6.65511 3.82697 7.09119C3.70739 7.96413 4.31802 8.76851 5.19092 8.88809C5.81351 8.97339 6.40102 8.6872 6.73025 8.1993C6.73981 8.18735 6.74938 8.17618 6.75895 8.16343C6.99969 7.84853 7.10332 7.4595 7.15753 7.10873C7.22768 6.65113 7.66214 6.35377 8.12051 6.42153C8.39872 6.46219 8.70802 6.47096 9.00138 6.37928C9.17915 6.32347 9.33539 6.25491 9.47091 6.18237C9.94124 5.96075 10.2944 5.51192 10.3709 4.95706Z" fill="#1B2F4C"/>
<path d="M17.8196 7.84934C17.9463 6.97799 17.3421 6.16803 16.4708 6.04127C16.0347 5.97829 15.6146 6.09708 15.2878 6.34102C15.1467 6.44625 15.0231 6.5754 14.9227 6.72209C14.666 7.04655 14.5552 7.45312 14.4962 7.81825C14.4228 8.27106 14.0083 8.58516 13.5547 8.5158C13.2422 8.46797 12.8859 8.45282 12.5527 8.56284C12.4706 8.58994 12.3932 8.61944 12.3191 8.65133C12.1621 8.70554 12.0146 8.78287 11.8823 8.88172C11.5546 9.12567 11.3203 9.49477 11.2573 9.93084C11.1305 10.8022 11.7348 11.6122 12.6061 11.7389C13.2279 11.829 13.8178 11.5476 14.151 11.0629C14.1606 11.0509 14.1709 11.0398 14.1805 11.027C14.4244 10.7145 14.5312 10.3263 14.5878 9.97549C14.6612 9.51789 15.0988 9.22452 15.5564 9.29627C15.8338 9.33932 16.1439 9.35048 16.4381 9.26119C16.6166 9.20698 16.7729 9.13922 16.9092 9.06827C17.3819 8.84983 17.7382 8.40419 17.8196 7.84934Z" fill="#1B2F4C"/>
<path d="M7.53671 11.7922C8.41072 11.6819 9.02976 10.8838 8.91937 10.0098C8.80899 9.1357 8.01098 8.51663 7.13697 8.62702C6.26297 8.73741 5.64393 9.53546 5.75431 10.4095C5.8647 11.2836 6.66271 11.9026 7.53671 11.7922Z" fill="#1B2F4C"/>
<path d="M10.8738 9.04573C11.7513 8.96653 12.3984 8.19097 12.3192 7.31349C12.24 6.436 11.4645 5.78886 10.587 5.86807C9.7096 5.94727 9.06249 6.72282 9.14169 7.60031C9.22089 8.47779 9.9964 9.12493 10.8738 9.04573Z" fill="#1B2F4C"/>
<path d="M14.4781 6.4263C15.354 6.33195 15.9875 5.5454 15.8931 4.6695C15.7988 3.7936 15.0123 3.16003 14.1364 3.25438C13.2606 3.34874 12.627 4.13529 12.7214 5.01119C12.8157 5.88709 13.6022 6.52066 14.4781 6.4263Z" fill="#1B2F4C"/>
</g>
<defs>
<clipPath id="clip0_223_1961">
<rect width="100.72" height="12" fill="white"/>
</clipPath>
</defs>
</svg>
