<svg width="108" height="24" viewBox="0 0 108 24" fill="none" xmlns="http://www.w3.org/2000/svg">
<g clip-path="url(#clip0_215_392)">
<path d="M4.34953 15.7366C4.11539 15.3282 4.26094 14.804 4.67016 14.5703C5.07937 14.3366 5.60461 14.4819 5.83875 14.8903C6.07289 15.2987 5.92734 15.8229 5.51813 16.084C5.37258 16.1724 5.22703 16.1998 5.07937 16.1998C4.78617 16.1745 4.49508 16.0272 4.34953 15.7366ZM7.32586 13.1724C6.94617 12.5029 5.54555 12.7345 6.01172 13.6672C5.45695 13.3472 4.75664 13.3472 4.17234 13.6672C3.26742 14.1914 2.97633 15.3282 3.47203 16.2314C3.99727 17.1345 5.13633 17.425 6.04125 16.9008C6.62555 16.5514 6.9757 15.9387 6.9757 15.2987C7.56 16.1724 8.46492 15.065 8.08523 14.3956C8.46492 14.1324 9.16523 13.6672 9.83602 13.2587C9.86555 12.764 9.89508 12.2966 9.89508 11.8019C9.07875 12.3282 7.91016 12.9408 7.32586 13.1724ZM5.54555 2.2482C3.70617 3.29662 2.07141 4.51978 0.670781 5.83136C0.234141 7.69662 0 9.73452 0 11.8335C0 13.5808 0.175078 15.2714 0.495703 16.844C1.02094 16.524 1.54617 16.0293 2.04188 15.3577C1.95328 14.5135 2.04188 13.5219 2.30555 12.444C2.56922 11.4545 2.9468 10.5787 3.41508 9.90926C4.64062 9.55978 7.35539 10.5493 9.86555 11.8314C9.86555 11.5682 9.86555 11.3072 9.86555 11.044C9.86555 10.8398 9.86555 10.5787 9.86555 10.2861C7.76461 8.85873 5.8957 7.25663 5.60461 6.11978C5.95477 5.39136 6.53906 4.63347 7.26891 3.90505C8.05781 3.11768 8.87414 2.56399 9.66305 2.21452C9.98367 1.45662 10.1292 0.728202 10.1587 0.117676C8.61047 0.705044 7.0643 1.37452 5.54555 2.2482ZM17.8643 15.7366C17.6892 16.0272 17.4255 16.1745 17.1049 16.1745C16.9594 16.1745 16.8138 16.145 16.6662 16.0587C16.257 15.825 16.1114 15.3008 16.3455 14.865C16.5797 14.4566 17.1049 14.3114 17.5141 14.545C17.9508 14.804 18.0963 15.3282 17.8643 15.7366ZM14.8859 13.1724C14.3016 12.9093 13.1351 12.3282 12.3462 11.8608C12.3462 12.3556 12.3757 12.8229 12.4052 13.3177C13.076 13.7261 13.7763 14.1619 14.156 14.4545C13.7763 15.0945 14.6517 16.2019 15.2655 15.3577C15.2655 15.9977 15.6157 16.6103 16.2 16.9598C17.1049 17.484 18.244 17.164 18.7692 16.2903C19.2945 15.3872 18.9738 14.2503 18.0689 13.7261C17.4846 13.3766 16.7843 13.4061 16.2 13.7261C16.6662 12.7366 15.236 12.5029 14.8859 13.1724ZM16.6388 2.2482C15.12 1.37452 13.5738 0.705045 12.0551 0.151361C12.0846 0.763992 12.2302 1.49241 12.5508 2.2482C13.3397 2.59767 14.156 3.15136 14.9449 3.93873C15.6748 4.66715 16.2591 5.42504 16.6092 6.15346C16.3181 7.29031 14.4492 8.89241 12.3483 10.3198C12.3483 10.6103 12.3483 10.8735 12.3483 11.0777C12.3483 11.3408 12.3483 11.6019 12.3483 11.865C14.8584 10.5829 17.5437 9.59346 18.7987 9.94294C19.2649 10.6124 19.6446 11.4861 19.9083 12.4777C20.1994 13.5556 20.288 14.545 20.172 15.3914C20.6677 16.0314 21.2224 16.5577 21.7181 16.8777C22.0092 15.305 22.2138 13.6145 22.2138 11.8671C22.2138 9.77031 21.9797 7.73031 21.543 5.86505C20.1108 4.52189 18.476 3.29662 16.6388 2.2482ZM10.2452 4.89873C10.2452 4.43347 10.6249 4.02504 11.1206 4.02504C11.6163 4.02504 11.996 4.40399 11.996 4.89873C11.996 5.36399 11.6163 5.77241 11.1206 5.77241C10.6249 5.77241 10.2452 5.39557 10.2452 4.89873ZM9.2243 4.89873C9.2243 5.5682 9.60398 6.18084 10.1292 6.50084C9.07875 6.58926 9.60398 7.89873 10.3634 7.89873C10.452 8.59768 10.4794 10.1998 10.4794 11.0735C10.4794 14.3366 10.0406 18.3282 8.90367 19.4061C8.08734 19.465 7.15289 19.3472 6.15938 19.0861C5.07938 18.7956 4.17445 18.3577 3.50367 17.8629C2.68734 17.9787 1.98492 18.1829 1.43227 18.4756C2.65781 19.524 4.03102 20.5429 5.54766 21.4187C7.32797 22.4377 9.28336 23.284 11.0932 23.8377C12.8735 23.284 14.8584 22.4398 16.6388 21.4187C18.1575 20.545 19.5286 19.5535 20.7541 18.4756C20.2289 18.185 19.4991 17.9808 18.6827 17.8629C18.012 18.3577 17.107 18.7956 16.027 19.0861C15.0356 19.3493 14.0716 19.465 13.2827 19.4061C12.1437 18.3282 11.707 14.3366 11.707 11.0735C11.707 10.1998 11.7366 8.59768 11.823 7.89873C12.5824 7.89873 13.1077 6.58715 12.0572 6.50084C12.612 6.18084 12.9621 5.5682 12.9621 4.89873C12.9621 3.87978 12.1163 3.03347 11.0932 3.03347C10.0702 3.03347 9.2243 3.87978 9.2243 4.89873Z" fill="url(#paint0_linear_215_392)"/>
<path d="M35.5809 11.9199C35.5809 9.79359 34.0621 8.10307 31.9612 8.10307C29.8602 8.10307 28.371 9.79359 28.371 11.861V11.8904C28.371 13.9873 29.8898 15.6778 31.9907 15.6778C34.0938 15.6778 35.5809 14.0189 35.5809 11.9199ZM27.291 11.9199C27.291 9.3557 29.1873 7.14307 31.9907 7.14307C34.7941 7.14307 36.6609 9.32833 36.6609 11.8631C36.6904 11.8631 36.6904 11.8631 36.6609 11.8925C36.6609 14.4273 34.7645 16.642 31.9612 16.642C29.1578 16.642 27.291 14.4546 27.291 11.9199Z" fill="#006150"/>
<path d="M37.8589 7.28857H38.8798V15.5328H44.0752V16.4949H37.8589V7.28857Z" fill="#006150"/>
<path d="M48.4838 15.5328C50.8189 15.5328 52.3081 13.9602 52.3081 11.9202V11.8907C52.3081 9.85068 50.8189 8.24857 48.4838 8.24857H46.3238V15.5307H48.4838V15.5328ZM45.3008 7.28857H48.4817C51.3716 7.28857 53.386 9.26963 53.386 11.8633V11.8928C53.386 14.4865 51.4011 16.4949 48.4817 16.4949H45.3008V7.28857Z" fill="#006150"/>
<path d="M54.6138 7.28857H56.8012L59.2249 11.1917L61.6485 7.28857H63.836V16.4949H61.8236V10.4928L59.2249 14.4254H59.1658L56.5987 10.5223V16.4949H54.6138V7.28857Z" fill="#006150"/>
<path d="M65.0635 12.5619V7.31771H67.0779V12.503C67.0779 13.9893 67.8373 14.7746 69.0628 14.7746C70.2884 14.7746 71.0478 14.0167 71.0478 12.5598V7.28613H73.0622V12.4714C73.0622 15.2398 71.4865 16.6082 69.0333 16.6082C66.5801 16.6398 65.0635 15.2419 65.0635 12.5619Z" fill="#006150"/>
<path d="M76.914 9.15384H74.1106V7.28857H81.7297V9.15384H78.9284V16.4949H76.914V9.15384Z" fill="#006150"/>
<path d="M82.7803 12.5619V7.31771H84.7947V12.503C84.7947 13.9893 85.5541 14.7746 86.7796 14.7746C88.0052 14.7746 88.7646 14.0167 88.7646 12.5598V7.28613H90.779V12.4714C90.779 15.2398 89.2033 16.6082 86.7501 16.6082C84.299 16.6398 82.7803 15.2419 82.7803 12.5619Z" fill="#006150"/>
<path d="M96.7907 12.6484L95.5651 9.67791L94.3396 12.6484H96.7907ZM94.6602 7.22949H96.5291L100.469 16.4927H98.3685L97.5226 14.4253H93.6414L92.7955 16.4927H90.7241L94.6602 7.22949Z" fill="#006150"/>
<path d="M101.374 7.28857H103.416V14.6591H108V16.4949H101.374V7.28857Z" fill="#006150"/>
</g>
<defs>
<linearGradient id="paint0_linear_215_392" x1="-3.60893" y1="11.9787" x2="22.1967" y2="11.9787" gradientUnits="userSpaceOnUse">
<stop offset="0.3" stop-color="#6EAB24"/>
<stop offset="0.7" stop-color="#006150"/>
</linearGradient>
<clipPath id="clip0_215_392">
<rect width="108" height="24" fill="white"/>
</clipPath>
</defs>
</svg>
