<svg width="256" height="256" viewBox="0 0 256 256" fill="none" xmlns="http://www.w3.org/2000/svg">
<path d="M49.1679 180.63C57.5001 180.056 63.789 172.835 63.2143 164.503C62.6397 156.171 55.4192 149.882 47.0869 150.457C38.7546 151.031 32.4658 158.252 33.0405 166.584C33.6151 174.916 40.8356 181.205 49.1679 180.63Z" fill="#C7A038"/>
<path d="M150.981 104.002C159.258 102.882 165.06 95.2642 163.94 86.9871C162.82 78.7099 155.202 72.908 146.925 74.028C138.648 75.1481 132.846 82.766 133.966 91.0431C135.086 99.3203 142.704 105.122 150.981 104.002Z" fill="#FAFAFA"/>
<path d="M209.061 180.851C217.312 179.55 222.946 171.808 221.645 163.557C220.345 155.307 212.602 149.673 204.352 150.973C196.101 152.274 190.467 160.016 191.768 168.267C193.068 176.517 200.811 182.151 209.061 180.851Z" fill="#FAFAFA"/>
<path d="M130.326 116.437C131.459 108.161 125.67 100.535 117.394 99.4013C113.26 98.8345 109.285 99.9984 106.201 102.334C104.871 103.347 103.707 104.571 102.77 105.977C100.366 109.068 99.346 112.937 98.817 116.399C98.1519 120.692 94.2521 123.707 89.9441 123.088C86.9739 122.657 83.6031 122.543 80.4515 123.609C79.673 123.874 78.9399 124.161 78.2446 124.463C76.7557 124.985 75.3651 125.733 74.1256 126.678C71.042 129.02 68.8502 132.535 68.2834 136.669C67.1497 144.945 72.939 152.571 81.2148 153.704C87.1175 154.513 92.6876 151.8 95.809 147.174C95.8997 147.061 95.9904 146.955 96.0811 146.834C98.3635 143.849 99.3461 140.161 99.86 136.835C100.525 132.497 104.644 129.678 108.99 130.32C111.628 130.706 114.56 130.789 117.341 129.92C119.027 129.391 120.508 128.741 121.793 128.053C126.252 125.952 129.6 121.697 130.326 116.437Z" fill="#FAFAFA"/>
<path d="M200.946 143.856C202.148 135.596 196.419 127.917 188.158 126.715C184.024 126.118 180.041 127.244 176.942 129.557C175.605 130.555 174.433 131.779 173.481 133.17C171.047 136.246 169.997 140.1 169.438 143.562C168.742 147.855 164.805 150.832 160.512 150.175C157.549 149.721 154.171 149.578 151.012 150.621C150.233 150.878 149.5 151.157 148.797 151.46C147.308 151.974 145.91 152.707 144.655 153.644C141.549 155.957 139.327 159.456 138.73 163.59C137.528 171.851 143.257 179.529 151.518 180.731C157.413 181.585 163.006 178.917 166.165 174.322C166.256 174.209 166.354 174.103 166.445 173.982C168.757 171.019 169.77 167.339 170.307 164.013C171.002 159.675 175.151 156.894 179.489 157.574C182.12 157.982 185.06 158.088 187.848 157.241C189.541 156.727 191.023 156.085 192.315 155.412C196.797 153.334 200.175 149.109 200.946 143.856Z" fill="#FAFAFA"/>
<path d="M103.455 181.239C111.741 180.192 117.61 172.627 116.564 164.34C115.517 156.054 107.951 150.185 99.6649 151.232C91.3785 152.278 85.5095 159.844 86.5561 168.13C87.6026 176.417 95.1684 182.286 103.455 181.239Z" fill="#FAFAFA"/>
<path d="M135.099 155.195C143.417 154.444 149.553 147.092 148.802 138.773C148.051 130.454 140.698 124.319 132.379 125.07C124.06 125.821 117.925 133.173 118.676 141.492C119.427 149.811 126.78 155.946 135.099 155.195Z" fill="#FAFAFA"/>
<path d="M169.261 130.37C177.565 129.475 183.572 122.019 182.677 113.715C181.783 105.411 174.326 99.4044 166.022 100.299C157.718 101.193 151.712 108.65 152.606 116.954C153.501 125.258 160.958 131.264 169.261 130.37Z" fill="#FAFAFA"/>
</svg>
