<svg width="48" height="48" viewBox="0 0 48 48" fill="none" xmlns="http://www.w3.org/2000/svg">
<g clip-path="url(#clip0_159_307)">
<path d="M21.5237 5.96094C23.1298 5.41685 24.8707 5.41681 26.4768 5.96094C27.5697 6.33128 28.6077 7.07852 30.8538 8.70996L35.843 12.334C37.1761 13.3023 37.7887 13.7499 38.2854 14.2812C39.0141 15.0609 39.573 15.9836 39.927 16.9902C40.1682 17.6762 40.2821 18.4256 40.5237 20.0547L41.4465 26.2842C41.8708 29.1449 42.0609 30.4637 41.8655 31.6406C41.5782 33.3704 40.7096 34.9506 39.4036 36.1211C38.515 36.9174 37.3005 37.4658 34.6584 38.6426L28.7454 41.2754C27.1518 41.9852 26.4171 42.3098 25.6682 42.4756C24.5693 42.7189 23.4302 42.7189 22.3313 42.4756C21.5825 42.3098 20.8484 41.9851 19.2551 41.2754L13.342 38.6426C10.6997 37.4657 9.48457 36.9175 8.59595 36.1211C7.28999 34.9506 6.42131 33.3704 6.13403 31.6406C5.93859 30.4637 6.12874 29.1449 6.55298 26.2842L7.47681 20.0547C7.71839 18.4257 7.83137 17.6762 8.07251 16.9902C8.42653 15.9835 8.98625 15.0609 9.71509 14.2812C10.2118 13.7499 10.8243 13.3023 12.1575 12.334L17.1467 8.70996C19.3928 7.07849 20.4307 6.33123 21.5237 5.96094Z" fill="#34C759" fill-opacity="0.15" stroke="#34C759"/>
<path d="M23.6677 14.5009C23.7662 14.4354 23.8818 14.4004 24.0001 14.4004C24.1184 14.4004 24.234 14.4354 24.3325 14.5009C26.5979 16.0281 29.1804 17.0214 31.8853 17.4061C32.0282 17.4266 32.159 17.4979 32.2535 17.607C32.3481 17.7162 32.4001 17.8557 32.4001 18.0001V23.5201C31.0538 22.8325 29.5123 22.6278 28.0333 22.9404C26.5543 23.253 25.2274 24.0638 24.2744 25.2373C23.3215 26.4109 22.8003 27.876 22.798 29.3877C22.7957 30.8994 23.3124 32.366 24.2617 33.5425L24.2161 33.5605C24.0771 33.6141 23.9231 33.6141 23.7841 33.5605C18.3697 31.4761 15.6001 28.0681 15.6001 23.4001V18.0001C15.6001 17.8555 15.6523 17.7158 15.7471 17.6067C15.8419 17.4976 15.973 17.4263 16.1161 17.4061C18.8206 17.0213 21.4026 16.0279 23.6677 14.5009ZM34.8001 29.4001C34.8001 27.9679 34.2312 26.5944 33.2185 25.5817C32.2058 24.569 30.8323 24.0001 29.4001 24.0001C27.9679 24.0001 26.5944 24.569 25.5817 25.5817C24.569 26.5944 24.0001 27.9679 24.0001 29.4001C24.0001 30.8323 24.569 32.2058 25.5817 33.2185C26.5944 34.2312 27.9679 34.8001 29.4001 34.8001C30.8323 34.8001 32.2058 34.2312 33.2185 33.2185C34.2312 32.2058 34.8001 30.8323 34.8001 29.4001ZM32.2249 27.1753C32.2808 27.231 32.3251 27.2972 32.3554 27.3701C32.3856 27.443 32.4012 27.5212 32.4012 27.6001C32.4012 27.679 32.3856 27.7571 32.3554 27.83C32.3251 27.9029 32.2808 27.9691 32.2249 28.0249L28.6249 31.6249C28.5692 31.6808 28.503 31.7251 28.4301 31.7553C28.3572 31.7856 28.279 31.8012 28.2001 31.8012C28.1212 31.8012 28.043 31.7856 27.9701 31.7553C27.8972 31.7251 27.831 31.6808 27.7753 31.6249L26.5753 30.4249C26.4626 30.3122 26.3993 30.1594 26.3993 30.0001C26.3993 29.8407 26.4626 29.6879 26.5753 29.5753C26.688 29.4626 26.8408 29.3993 27.0001 29.3993C27.1594 29.3993 27.3122 29.4626 27.4249 29.5753L28.2001 30.3517L31.3753 27.1753C31.431 27.1194 31.4972 27.0751 31.5701 27.0448C31.643 27.0146 31.7212 26.999 31.8001 26.999C31.879 26.999 31.9572 27.0146 32.0301 27.0448C32.103 27.0751 32.1692 27.1194 32.2249 27.1753Z" fill="#34C759"/>
</g>
<defs>
<clipPath id="clip0_159_307">
<rect width="48" height="48" fill="white"/>
</clipPath>
</defs>
</svg>
