<svg width="48" height="48" viewBox="0 0 48 48" fill="none" xmlns="http://www.w3.org/2000/svg">
<g clip-path="url(#clip0_159_315)">
<path d="M21.2231 14.2225L13.3523 28.5325C13.2015 28.8066 13.1247 29.1153 13.1296 29.4282C13.1345 29.7411 13.2209 30.0472 13.3802 30.3165C13.5395 30.5858 13.7662 30.8089 14.038 30.9639C14.3099 31.1188 14.6174 31.2002 14.9303 31.2001H24.4511C24.1782 30.3799 24.0281 29.5238 24.0059 28.6597V28.6501L23.9999 28.3117V25.2997C23.9999 24.4081 24.7067 23.6005 25.6799 23.6005C26.7491 23.6005 27.7559 23.1793 28.7459 22.1665L24.3779 14.2225C24.2226 13.94 23.9943 13.7044 23.7168 13.5402C23.4393 13.3761 23.1229 13.2896 22.8005 13.2896C22.4781 13.2896 22.1616 13.3761 21.8842 13.5402C21.6067 13.7044 21.3784 13.94 21.2231 14.2225ZM22.7999 18.9001C23.0386 18.9001 23.2675 18.9949 23.4363 19.1637C23.6051 19.3325 23.6999 19.5614 23.6999 19.8001V24.6001C23.6999 24.8388 23.6051 25.0677 23.4363 25.2365C23.2675 25.4053 23.0386 25.5001 22.7999 25.5001C22.5612 25.5001 22.3323 25.4053 22.1635 25.2365C21.9947 25.0677 21.8999 24.8388 21.8999 24.6001V19.8001C21.8999 19.5614 21.9947 19.3325 22.1635 19.1637C22.3323 18.9949 22.5612 18.9001 22.7999 18.9001ZM23.6999 27.3001C23.6999 27.5388 23.6051 27.7677 23.4363 27.9365C23.2675 28.1053 23.0386 28.2001 22.7999 28.2001C22.5612 28.2001 22.3323 28.1053 22.1635 27.9365C21.9947 27.7677 21.8999 27.5388 21.8999 27.3001C21.8999 27.0614 21.9947 26.8325 22.1635 26.6637C22.3323 26.4949 22.5612 26.4001 22.7999 26.4001C23.0386 26.4001 23.2675 26.4949 23.4363 26.6637C23.6051 26.8325 23.6999 27.0614 23.6999 27.3001Z" fill="#D64700"/>
<path d="M32.3998 24.4165C31.972 24.2352 31.5688 24.0005 31.1998 23.7181C30.8932 23.4847 30.6059 23.2271 30.3406 22.9477C30.2969 22.9016 30.2442 22.8649 30.1858 22.8398C30.1274 22.8147 30.0645 22.8018 30.001 22.8018C29.9374 22.8018 29.8745 22.8147 29.8162 22.8398C29.7578 22.8649 29.7051 22.9016 29.6614 22.9477C28.4674 24.1897 27.1474 24.8005 25.6798 24.8005C25.5499 24.8037 25.4266 24.8581 25.3366 24.9518C25.2467 25.0456 25.1975 25.1711 25.1998 25.3009V28.3009L25.2046 28.6201C25.2366 29.5769 25.4126 30.4369 25.7326 31.2001C26.1288 32.153 26.7736 32.9818 27.5998 33.6001C28.2294 34.0801 28.979 34.4717 29.8486 34.7749C29.9475 34.8081 30.0545 34.8081 30.1534 34.7749C33.2254 33.7069 34.801 31.5205 34.801 28.3021V25.3009L34.7902 25.2001C34.7702 25.0894 34.7124 24.989 34.6266 24.9161C34.5408 24.8432 34.4323 24.8024 34.3198 24.8005C33.6605 24.8025 33.0076 24.6719 32.3998 24.4165Z" fill="#D64700"/>
<path d="M19.8813 6.65161C22.3623 4.84938 25.7217 4.84931 28.2026 6.65161L40.4966 15.5842C42.9776 17.3868 44.0155 20.5816 43.0679 23.4983L38.3726 37.9514C37.4248 40.8679 34.7067 42.842 31.6401 42.842H16.4438C13.3772 42.842 10.6592 40.8679 9.71143 37.9514L5.01514 23.4983C4.06766 20.5817 5.10643 17.3868 7.5874 15.5842L19.8813 6.65161Z" fill="#D64700" fill-opacity="0.15" stroke="#D64700"/>
</g>
<defs>
<clipPath id="clip0_159_315">
<rect width="48" height="48" fill="white"/>
</clipPath>
</defs>
</svg>
